<svg version="1.2" xmlns="http://www.w3.org/2000/svg" viewBox="0 0 512 512" width="512" height="512">
	<style>
		.s0 { fill: #fa4350 } 
		.s1 { fill: #fc6356 } 
		.s2 { fill: #f71e45 } 
		.s3 { fill: #fc9f63 } 
		.s4 { fill: #ff835d } 
	</style>
	<g id="Background">
		<path id="Path 0" class="s0" d="m258.13 1.67c-0.05 0.46 31.2 39.3 69.44 86.33 40.23 49.46 69.38 86.13 69.15 87-0.22 0.82-30.9 54.38-68.19 119-37.28 64.63-68.52 118.84-69.41 120.47-0.89 1.63-2.07 3.47-2.62 4.09-0.55 0.61-2.13 0.89-3.5 0.61-1.38-0.27-50.53-8.19-109.24-17.58-58.71-9.4-106.6-16.64-106.42-16.09 0.18 0.55 49.11 29.21 108.74 63.69 59.63 34.48 108.76 62.72 109.17 62.75 0.41 0.03 0.86-20.74 1-46.17l0.25-46.23c161.2-25.98 210.7-33.73 214-34 3.3-0.26 6.34-0.49 6.75-0.51 0.41-0.02 0.75-0.71 0.75-1.53 0-0.82-0.64-2.51-1.42-3.75-0.78-1.24-18.81-47.92-40.06-103.75-21.25-55.83-38.27-101.8-37.83-102.16 0.45-0.37 18.13-10.65 39.31-22.86 21.18-12.2 38.81-22.48 39.19-22.83 0.39-0.36-48.39-29-108.38-63.65-60-34.65-109.42-63.15-109.83-63.33-0.41-0.19-0.79 0.04-0.85 0.5zm-224.09 254.58c0.03 114.87 0.19 126.91 1.56 123.75 0.84-1.93 18.85-48.95 40.02-104.5 21.17-55.55 38.13-101.31 37.68-101.68-0.44-0.37-18.01-10.61-39.05-22.75-21.04-12.14-38.7-22.07-39.25-22.07-0.66 0-0.99 43.06-0.96 127.25z"/>
		<path id="Path 1" class="s1" d="m143.21 64.41c-60.05 34.7-109.18 63.43-109.19 63.84-0.01 0.41 0.43 0.75 0.98 0.75 0.55 0 18.21 9.93 39.25 22.07 21.04 12.14 38.61 22.38 39.05 22.75 0.45 0.37-16.51 46.13-37.69 101.68-21.17 55.55-39.22 102.8-40.11 105-1.33 3.25-1.38 4.14-0.32 4.72 0.73 0.39 1.44 0.39 1.58 0 0.14-0.4 48.29 6.97 107 16.37 58.71 9.39 107.92 17.27 109.37 17.5 1.45 0.22 2.52 0.18 2.39-0.09-0.13-0.27-31.88-55.4-70.54-122.5-63.88-110.86-70.18-122.18-68.97-124 0.73-1.1 31.69-39.35 68.79-85 37.11-45.65 67.85-83.56 68.33-84.25 0.48-0.69 0.51-1.4 0.06-1.59-0.44-0.19-49.93 28.05-109.98 62.75zm112.79 231.59c0 80.67 0.34 122 1 122 0.55 0 1-0.45 1-1 0-0.55 31.12-54.89 69.15-120.75 38.03-65.86 69.3-120.31 69.5-121 0.28-0.99-14.23-1.25-70.15-1.25h-70.5z"/>
		<path id="Path 2" class="s2" d="m439.5 150.07c-20.9 12.1-38.84 22.55-39.86 23.21-1.74 1.14 0.57 7.57 37.26 103.72 21.52 56.38 39.57 102.95 40.13 103.5 0.67 0.67 1-40.76 0.99-125.75-0.01-69.71-0.13-126.73-0.27-126.72-0.14 0.02-17.35 9.94-38.25 22.04zm-76.5 252.29l-106.5 17.17c-0.39 71.67-0.27 92.47 0 92.47 0.27 0 48.99-27.99 108.25-62.19 59.26-34.21 108.34-62.79 109.07-63.5 1.09-1.08 0.83-1.29-1.5-1.22-1.55 0.05-50.74 7.82-109.32 17.27z"/>
		<path id="Path 3" class="s3" d="m253.88 0.75c-0.06 0.41-0.08 0.98-0.04 1.25 0.04 0.27-31 38.75-68.98 85.5-37.97 46.75-69.23 85.34-69.45 85.75-0.23 0.41 31.32 0.75 70.09 0.75h70.5c0-144.33-0.34-174-1-174-0.55 0-1.05 0.34-1.12 0.75z"/>
		<path id="Path 4" class="s4" d="m256 87v87c-109.28 0-140.99 0.34-140.98 0.75 0.02 0.41 31.63 55.48 70.25 122.37l70.23 121.63 0.5-244.75 141.03-0.5c-107.19-131.75-138.41-170.79-138.52-171.75-0.11-0.96-0.72-1.75-1.35-1.75-0.87 0-1.16 21.83-1.16 87z"/>
	</g>
</svg>